<?xml version="1.0" encoding="iso-8859-1"?>
<!-- Generator: Adobe Illustrator 19.0.0, SVG Export Plug-In . SVG Version: 6.00 Build 0)  -->
<svg version="1.1" id="Capa_1" xmlns="http://www.w3.org/2000/svg" xmlns:xlink="http://www.w3.org/1999/xlink" x="0px" y="0px"
	 viewBox="0 0 416.427 416.427" style="enable-background:new 0 0 416.427 416.427;" xml:space="preserve">
<g>
	<ellipse style="fill:#EA3457;" cx="211.627" cy="395.947" rx="109.227" ry="13.653"/>
	<path style="fill:#EA3457;" d="M211.627,416.427c-29.454,0-57.18-1.44-78.08-4.053c-28.041-3.504-37.973-7.803-37.973-16.427
		c0-8.624,9.933-12.923,37.973-16.427c20.9-2.613,48.626-4.053,78.08-4.053s57.18,1.44,78.08,4.053
		c28.041,3.504,37.973,7.803,37.973,16.427c0,8.624-9.933,12.923-37.973,16.427C268.807,414.986,241.08,416.427,211.627,416.427z
		 M117.434,395.947c15.727,3.459,49.067,6.827,94.193,6.827s78.467-3.367,94.193-6.827c-15.727-3.459-49.067-6.827-94.193-6.827
		S133.159,392.487,117.434,395.947z M315.273,399.154h0.067H315.273z"/>
</g>
<path style="fill:#FFFFFF;" d="M402.773,201.387c0-107.452-87.108-194.56-194.56-194.56s-194.56,87.108-194.56,194.56
	s87.108,194.56,194.56,194.56c94.549,0,173.346-67.442,190.908-156.844"/>
<path style="fill:#602F75;" d="M208.213,402.773c-111.046,0-201.387-90.341-201.387-201.387S97.167,0,208.213,0
	S409.6,90.341,409.6,201.387c0,3.77-3.053,6.827-6.827,6.827s-6.827-3.057-6.827-6.827c0-103.516-84.221-187.733-187.733-187.733
	S20.48,97.871,20.48,201.387S104.701,389.12,208.213,389.12c89.513,0,166.987-63.643,184.207-151.334
	c0.727-3.693,4.313-6.124,8.013-5.383c3.7,0.727,6.113,4.316,5.386,8.016C387.34,334.493,304.234,402.773,208.213,402.773z"/>
<g>
	<path style="fill:#00E7FF;" d="M227.519,201.387l82.507-82.507c5.333-5.33,5.333-13.976,0-19.306
		c-5.333-5.333-13.974-5.333-19.306,0l-82.507,82.507l-82.507-82.507c-5.33-5.333-13.976-5.333-19.306,0
		c-5.333,5.333-5.333,13.974,0,19.306l82.507,82.507L106.4,283.894c-5.333,5.33-5.333,13.976,0,19.306c2.666,2.668,6.159,4,9.653,4
		c3.494,0,6.987-1.333,9.653-4l82.507-82.507L290.72,303.2c5.33,5.333,13.976,5.333,19.306,0c2.666-2.666,4-6.159,4-9.653
		c0-3.494-1.333-6.987-4-9.653L227.519,201.387z"/>
	<path style="fill:#00E7FF;" d="M116.053,314.027c-5.466,0-10.614-2.13-14.479-6.001c-3.867-3.866-6.001-9.009-6.001-14.479
		c0-5.47,2.133-10.614,6.001-14.483l77.679-77.677l-77.681-77.681c-7.987-7.984-7.987-20.977,0-28.96
		c7.987-7.987,20.973-7.987,28.96,0l77.681,77.681l77.681-77.681c7.987-7.987,20.973-7.987,28.96,0
		c3.866,3.867,5.999,9.011,5.999,14.481s-2.133,10.614-6.001,14.483l-77.679,77.677l77.681,77.681
		c3.866,3.866,5.999,9.01,5.999,14.479c0,5.47-2.133,10.614-6.001,14.479c-7.987,7.987-20.973,7.987-28.96,0l-77.679-77.679
		l-77.681,77.681C126.667,311.897,121.52,314.027,116.053,314.027z M116.053,102.403c-1.746,0-3.494,0.667-4.826,1.997
		c-2.661,2.661-2.661,6.994,0,9.653l82.507,82.507c2.666,2.666,2.666,6.987,0,9.653l-82.507,82.507c-1.294,1.29-2,3.004-2,4.826
		c0,1.823,0.707,3.536,2,4.823c2.587,2.587,7.067,2.584,9.653,0.003l82.507-82.507c2.666-2.666,6.987-2.666,9.653,0l82.507,82.507
		c2.666,2.661,6.987,2.661,9.653,0c1.287-1.29,2-3.004,2-4.826c0-1.823-0.713-3.536-2-4.826l-82.507-82.507
		c-2.666-2.666-2.666-6.987,0-9.653l82.507-82.507c1.294-1.29,2-3.004,2-4.826s-0.707-3.536-2-4.823
		c-2.666-2.666-6.987-2.664-9.653-0.003l-82.507,82.507c-2.666,2.666-6.987,2.666-9.653,0L120.88,104.4
		C119.547,103.071,117.799,102.403,116.053,102.403z"/>
</g>
<g>
</g>
<g>
</g>
<g>
</g>
<g>
</g>
<g>
</g>
<g>
</g>
<g>
</g>
<g>
</g>
<g>
</g>
<g>
</g>
<g>
</g>
<g>
</g>
<g>
</g>
<g>
</g>
<g>
</g>
</svg>
